<?xml version="1.0" standalone="no"?><!DOCTYPE svg PUBLIC "-//W3C//DTD SVG 1.1//EN" "http://www.w3.org/Graphics/SVG/1.1/DTD/svg11.dtd"><svg t="1591160382722" class="icon" viewBox="0 0 1024 1024" version="1.1" xmlns="http://www.w3.org/2000/svg" p-id="5468" xmlns:xlink="http://www.w3.org/1999/xlink" width="128" height="128"><defs><style type="text/css"></style></defs><path d="M512.01024 0c282.75712 0 512 229.23264 512 512s-229.24288 512-512 512c-282.7776 0-512-229.24288-512-512C0 229.23264 229.23264 0 512.01024 0z" fill="#3DB39E" p-id="5469"></path><path d="M775.0656 416.01024c-20.85888-6.77888-43.776-12.62592-68.21888-17.55136 7.95648-23.71584 14.52032-46.67392 19.11808-68.1984 16.72192-78.41792 8.2432-129.95584-24.5248-149.01248-8.20224-4.79232-17.64352-7.19872-28.03712-7.19872-15.40096 0-32.88064 5.46816-51.78368 15.68768-19.78368 12.24704-45.19936 30.93504-62.23872 46.15168A617.33888 617.33888 0 0 0 512 284.89728c-60.13952-69.0176-118.81472-110.83776-161.40288-110.83776-10.40384 0-19.84512 2.4064-28.04736 7.19872-32.73728 19.05664-41.216 70.6048-24.51456 149.01248 4.58752 21.53472 11.15136 44.48256 19.11808 68.18816-24.45312 4.9152-47.36 10.77248-68.20864 17.55136C173.16864 440.65792 133.12 473.8048 133.12 511.93856c0 26.1632 18.88256 49.99168 55.22432 70.33856 21.74976 11.07968 42.46528 19.85536 73.91232 29.67552 17.16224 5.07904 35.56352 9.54368 54.90688 13.43488-7.96672 23.71584-14.53056 46.66368-19.11808 68.17792-16.70144 78.45888-8.22272 129.97632 24.53504 149.0432 8.21248 4.7616 17.63328 7.17824 28.02688 7.17824 42.5984 0 101.2736-41.79968 161.40288-110.83776 60.13952 69.03808 118.80448 110.85824 161.40288 110.85824 10.40384 0 19.82464-2.41664 28.01664-7.17824 24.96512-14.52032 35.77856-47.90272 32.16384-97.61792-0.52224-8.83712-9.6768-61.7984-13.8752-77.30176a671.03744 671.03744 0 0 0-12.86144-42.30144c24.46336-4.9152 47.36-10.78272 68.21888-17.5616 75.776-24.63744 115.82464-57.79456 115.82464-95.91808-0.01024-38.12352-40.04864-71.2704-115.83488-95.91808zM574.37184 255.29344c19.38432-16.78336 32.04096-26.33728 61.0816-45.21984 14.6432-7.66976 27.50464-11.63264 37.95968-11.63264 6.1952 0 11.39712 1.26976 15.96416 3.92192 21.80096 12.6976 26.64448 58.61376 12.96384 122.81856-4.61824 21.6576-11.3152 44.84096-19.49696 68.85376a960.90112 960.90112 0 0 0-96.88064-11.12064 968.7552 968.7552 0 0 0-58.08128-79.2064 593.16224 593.16224 0 0 1 46.4896-48.41472z m29.61408 310.17984a1178.48064 1178.48064 0 0 1-31.55968 51.89632 1106.6368 1106.6368 0 0 1-120.84224 0 1162.77248 1162.77248 0 0 1-31.56992-51.89632 1127.70048 1127.70048 0 0 1-28.74368-53.64736c8.8064-17.47968 18.37056-35.30752 28.74368-53.42208 10.4448-18.2272 21.00224-35.50208 31.56992-51.89632a1117.02016 1117.02016 0 0 1 120.84224 0 1172.50048 1172.50048 0 0 1 31.55968 51.89632 1127.51616 1127.51616 0 0 1 28.74368 53.42208 1118.48448 1118.48448 0 0 1-28.74368 53.64736z m42.00448-26.38848a928.6656 928.6656 0 0 1 28.49792 67.40992 920.22784 920.22784 0 0 1-72.07936 8.81664c7.61856-12.21632 15.1552-24.76032 22.53824-37.66272a1183.93856 1183.93856 0 0 0 21.0432-38.56384z m-90.27584 103.424a927.25248 927.25248 0 0 1-43.70432 58.73664 913.664 913.664 0 0 1-43.70432-58.73664c14.40768 0.54272 28.98944 0.86016 43.68384 0.86016 14.73536 0 29.29664-0.31744 43.7248-0.86016z m-134.10304-27.19744c-25.4976-2.14016-49.59232-5.12-72.0896-8.83712a927.62112 927.62112 0 0 1 28.49792-67.38944 1155.60448 1155.60448 0 0 0 21.06368 38.57408c7.3728 12.87168 14.90944 25.41568 22.528 37.65248z m-43.53024-130.64192a939.6736 939.6736 0 0 1-28.53888-67.2768 909.98784 909.98784 0 0 1 72.05888-8.81664 1180.71296 1180.71296 0 0 0-22.53824 37.66272 1192.31488 1192.31488 0 0 0-20.98176 38.43072z m90.22464-103.30112a920.07424 920.07424 0 0 1 43.70432-58.75712 931.8912 931.8912 0 0 1 43.70432 58.75712 1140.77696 1140.77696 0 0 0-43.7248-0.86016c-14.70464 0-29.27616 0.3072-43.68384 0.86016z m156.64128 64.84992a1203.98848 1203.98848 0 0 0-22.53824-37.66272c25.47712 2.12992 49.5616 5.12 72.05888 8.81664a947.0976 947.0976 0 0 1-28.53888 67.2768 1176.2176 1176.2176 0 0 0-20.98176-38.43072zM321.69984 325.1712c-13.69088-64.21504-8.83712-110.12096 12.96384-122.81856 4.54656-2.65216 9.7792-3.92192 15.95392-3.92192 31.91808 0 85.84192 36.22912 145.54112 105.24672a975.28832 975.28832 0 0 0-58.05056 79.2064 963.31776 963.31776 0 0 0-96.89088 11.13088c-8.192-24.00256-14.8992-47.17568-19.51744-68.84352zM267.264 587.88864c-28.57984-10.24-41.2672-15.1552-66.02752-26.624-28.27264-15.60576-43.9296-32.78848-43.9296-49.33632 0-33.55648 64.02048-69.64224 167.99744-90.17344a977.08032 977.08032 0 0 0 38.8608 90.17344 974.6944 974.6944 0 0 0-38.8608 90.17344 615.44448 615.44448 0 0 1-58.04032-14.21312z m83.34336 237.53728c-6.17472 0-11.39712-1.28-15.95392-3.92192-28.8256-16.78336-27.83232-90.6752 6.52288-191.68256a960.9216 960.9216 0 0 0 96.9216 11.14112 978.15552 978.15552 0 0 0 58.05056 79.19616c-59.70944 69.04832-113.63328 105.2672-145.54112 105.2672z m345.4976-151.95136c2.26304 11.3152 10.1376 46.45888 13.19936 74.42432 2.58048 38.25664-4.23936 64.4608-19.95776 73.61536-4.5568 2.64192-9.75872 3.92192-15.94368 3.92192-31.8976 0-85.82144-36.21888-145.54112-105.25696a976.88576 976.88576 0 0 0 58.0608-79.19616 961.26976 961.26976 0 0 0 96.9216-11.14112 652.40064 652.40064 0 0 1 13.2608 43.63264z m2.60096-71.36256a983.10144 983.10144 0 0 0-38.8608-90.17344 985.52832 985.52832 0 0 0 38.8608-90.17344c103.97696 20.5312 167.99744 56.60672 167.99744 90.17344 0.01024 33.55648-64.01024 69.632-167.99744 90.17344z" fill="#FDFEFE" p-id="5470"></path><path d="M435.2 194.56a35.84 35.84 0 1 0 0 71.68 35.84 35.84 0 0 0 0-71.68z m-122.88 491.53024A35.84 35.84 0 1 0 312.30976 757.76 35.84 35.84 0 0 0 312.32 686.08zM793.61024 542.72c-19.80416 0-35.84 16.04608-35.84 35.85024s16.03584 35.84 35.84 35.84a35.84 35.84 0 1 0 0-71.69024z" fill="#E2574C" p-id="5471"></path><path d="M445.44 204.8a15.36 15.36 0 1 0 0.01024 30.73024A15.36 15.36 0 0 0 445.44 204.8z m-122.88 491.53024a15.36 15.36 0 1 0 0.01024 30.73024 15.36 15.36 0 0 0-0.01024-30.73024zM803.85024 552.96a15.37024 15.37024 0 0 0 0 30.73024 15.36 15.36 0 0 0 0-30.73024z" fill="#EB9891" p-id="5472"></path><path d="M512.01024 440.32A71.68 71.68 0 1 1 512 583.69024 71.68 71.68 0 0 1 512 440.32z" fill="#324D5B" p-id="5473"></path><path d="M532.49024 471.04A20.48 20.48 0 1 1 532.48 512.01024 20.48 20.48 0 0 1 532.48 471.04z" fill="#6E818B" p-id="5474"></path><path d="M522.25024 573.45024a71.68 71.68 0 0 1-55.53152-116.97152A71.45472 71.45472 0 0 0 440.32 512a71.68 71.68 0 0 0 127.21152 45.29152 71.22944 71.22944 0 0 1-45.28128 16.15872z" fill="#2D4552" p-id="5475"></path><path d="M435.2 194.56a35.84 35.84 0 1 1 0 71.68 35.84 35.84 0 0 1 0-71.68m358.41024 348.16a35.84 35.84 0 1 1-0.02048 71.70048A35.84 35.84 0 0 1 793.61024 542.72M312.32 686.09024A35.84 35.84 0 1 1 312.33024 757.76 35.84 35.84 0 0 1 312.32 686.08M435.2 174.08c-31.05792 0-56.32 25.26208-56.32 56.32s25.26208 56.32 56.32 56.32 56.32-25.26208 56.32-56.32-25.26208-56.32-56.32-56.32z m358.41024 348.16a56.39168 56.39168 0 0 0-56.32 56.33024c0 31.04768 25.27232 56.32 56.32 56.32s56.32-25.27232 56.32-56.32a56.39168 56.39168 0 0 0-56.32-56.33024zM312.32 665.61024c-31.05792 0-56.32 25.27232-56.32 56.32s25.26208 56.32 56.32 56.32 56.32-25.27232 56.32-56.32-25.26208-56.32-56.32-56.32z" fill="#FDFEFE" p-id="5476"></path><path d="M445.44 256a35.84 35.84 0 0 1-35.84-35.84c0-7.2704 2.2016-14.0288 5.92896-19.67104A35.76832 35.76832 0 0 0 399.36 230.4a35.84 35.84 0 0 0 35.84 35.84 35.7376 35.7376 0 0 0 29.91104-16.16896A35.4816 35.4816 0 0 1 445.44 256z m-122.88 491.53024a35.84 35.84 0 0 1-35.84-35.84c0-7.28064 2.2016-14.0288 5.92896-19.68128A35.76832 35.76832 0 0 0 276.48 721.93024a35.84 35.84 0 0 0 35.84 35.84 35.76832 35.76832 0 0 0 29.91104-16.16896 35.56352 35.56352 0 0 1-19.67104 5.92896z m481.29024-143.36a35.82976 35.82976 0 0 1-29.91104-55.53152 35.82976 35.82976 0 1 0 49.58208 49.60256 35.61472 35.61472 0 0 1-19.67104 5.92896z" fill="#CB4E44" p-id="5477"></path></svg>